<svg xmlns="http://www.w3.org/2000/svg" version="1.1" xmlns:xlink="http://www.w3.org/1999/xlink" xmlns:svgjs="http://svgjs.dev/svgjs" width="128" height="128" viewBox="0 0 128 128"><g transform="matrix(0.8046875,0,0,0.8046875,12.5,12.5)"><svg viewBox="0 0 200 200" data-background-color="#ffffff" preserveAspectRatio="xMidYMid meet" height="128" width="128" xmlns="http://www.w3.org/2000/svg" xmlns:xlink="http://www.w3.org/1999/xlink"><g id="tight-bounds" transform="matrix(1,0,0,1,0,0)"><svg viewBox="0 0 200 200" height="200" width="200"><g><svg></svg></g><g><svg viewBox="0 0 200 200" height="200" width="200"><g><path d="M0 100c0-55.228 44.772-100 100-100 55.228 0 100 44.772 100 100 0 55.228-44.772 100-100 100-55.228 0-100-44.772-100-100z" fill="#ec4104" fill-rule="nonzero" stroke="none" stroke-width="1" stroke-linecap="butt" stroke-linejoin="miter" stroke-miterlimit="10" stroke-dasharray="" stroke-dashoffset="0" font-family="none" font-weight="none" font-size="none" text-anchor="none" style="mix-blend-mode: normal" data-fill-palette-color="tertiary"></path></g><g transform="matrix(1,0,0,1,75.28,74.61419889502763)"><svg viewBox="0 0 49.44 50.77160220994475" height="50.77160220994475" width="49.44"><g><svg viewBox="0 0 49.44 50.77160220994475" height="50.77160220994475" width="49.44"><g><svg viewBox="0 0 49.44 50.77160220994475" height="50.77160220994475" width="49.44"><g id="textblocktransform"><svg viewBox="0 0 49.44 50.77160220994475" height="50.77160220994475" width="49.44" id="textblock"><g><svg viewBox="0 0 49.44 50.77160220994475" height="50.77160220994475" width="49.44"><g transform="matrix(1,0,0,1,0,0)"><svg width="49.44" viewBox="2.73 -36.3 35.36000000000001 36.3" height="50.77160220994475" data-palette-color="#ffffff"><path d="M8.98-36.3L21.39-21.7 32.74-34.79 32.74-36.3 38.09-36.3 38.09 0 32.74 0 32.74-31.05 19.92-16.26 7.18-31.1 7.18 0 4.69 0 4.69-34.01 2.73-36.3 8.98-36.3Z" opacity="1" transform="matrix(1,0,0,1,0,0)" fill="#ffffff" class="wordmark-text-0" data-fill-palette-color="quaternary" id="text-0"></path></svg></g></svg></g></svg></g></svg></g><g></g></svg></g></svg></g></svg></g><defs></defs></svg><rect width="200" height="200" fill="none" stroke="none" visibility="hidden"></rect></g></svg></g></svg>